HIERARCHY
ROOT Hips
{
	OFFSET 0.00000 0.00000 0.00000
	CHANNELS 6 Xposition Yposition Zposition Zrotation Yrotation Xrotation 
	JOINT LHipJoint
	{
		OFFSET 0 0 0
		CHANNELS 3 Zrotation Yrotation Xrotation
		JOINT LeftUpLeg
		{
			OFFSET 1.55766 -1.60504 1.11378
			CHANNELS 3 Zrotation Yrotation Xrotation
			JOINT LeftLeg
			{
				OFFSET 2.29047 -6.29302 0.00000
				CHANNELS 3 Zrotation Yrotation Xrotation
				JOINT LeftFoot
				{
					OFFSET 2.52265 -6.93093 0.00000
					CHANNELS 3 Zrotation Yrotation Xrotation
					JOINT LeftToeBase
					{
						OFFSET 0.17633 -0.48446 2.02656
						CHANNELS 3 Zrotation Yrotation Xrotation
						End Site
						{
							OFFSET 0.00000 -0.00000 1.04989
						}
					}
				}
			}
		}
	}
	JOINT RHipJoint
	{
		OFFSET 0 0 0
		CHANNELS 3 Zrotation Yrotation Xrotation
		JOINT RightUpLeg
		{
			OFFSET -1.48599 -1.60504 1.11378
			CHANNELS 3 Zrotation Yrotation Xrotation
			JOINT RightLeg
			{
				OFFSET -2.27280 -6.24448 0.00000
				CHANNELS 3 Zrotation Yrotation Xrotation
				JOINT RightFoot
				{
					OFFSET -2.50834 -6.89161 0.00000
					CHANNELS 3 Zrotation Yrotation Xrotation
					JOINT RightToeBase
					{
						OFFSET -0.26967 -0.74090 2.08741
						CHANNELS 3 Zrotation Yrotation Xrotation
						End Site
						{
							OFFSET -0.00000 -0.00000 1.10614
						}
					}
				}
			}
		}
	}
	JOINT LowerBack
	{
		OFFSET 0 0 0
		CHANNELS 3 Zrotation Yrotation Xrotation
		JOINT Spine
		{
			OFFSET 0.06481 2.02437 -0.08472
			CHANNELS 3 Zrotation Yrotation Xrotation
			JOINT Spine1
			{
				OFFSET 0.00015 1.96711 0.18069
				CHANNELS 3 Zrotation Yrotation Xrotation
				JOINT Neck
				{
					OFFSET 0 0 0
					CHANNELS 3 Zrotation Yrotation Xrotation
					JOINT Neck1
					{
						OFFSET -0.29961 1.68293 -0.13041
						CHANNELS 3 Zrotation Yrotation Xrotation
						JOINT Head
						{
							OFFSET 0.59697 1.61501 -0.14669
							CHANNELS 3 Zrotation Yrotation Xrotation
							End Site
							{
								OFFSET 0.22973 1.74906 -0.10148
							}
						}
					}
				}
				JOINT LeftShoulder
				{
					OFFSET 0 0 0
					CHANNELS 3 Zrotation Yrotation Xrotation
					JOINT LeftArm
					{
						OFFSET 3.37968 1.02893 0.31147
						CHANNELS 3 Zrotation Yrotation Xrotation
						JOINT LeftForeArm
						{
							OFFSET 5.19807 -0.00000 -0.00000
							CHANNELS 3 Zrotation Yrotation Xrotation
							JOINT LeftHand
							{
								OFFSET 3.09370 -0.00000 -0.00000
								CHANNELS 3 Zrotation Yrotation Xrotation
								JOINT LeftFingerBase
								{
									OFFSET 0 0 0
									CHANNELS 3 Zrotation Yrotation Xrotation
									JOINT LeftHandIndex1
									{
										OFFSET 0.67263 -0.00000 -0.00000
										CHANNELS 3 Zrotation Yrotation Xrotation
										End Site
										{
											OFFSET 0.54229 -0.00000 -0.00000
										}
									}
								}
								JOINT LThumb
								{
									OFFSET 0 0 0
									CHANNELS 3 Zrotation Yrotation Xrotation
									End Site
									{
										OFFSET 0.55057 -0.00000 0.55057
									}
								}
							}
						}
					}
				}
				JOINT RightShoulder
				{
					OFFSET 0 0 0
					CHANNELS 3 Zrotation Yrotation Xrotation
					JOINT RightArm
					{
						OFFSET -3.38254 0.96355 -0.16120
						CHANNELS 3 Zrotation Yrotation Xrotation
						JOINT RightForeArm
						{
							OFFSET -5.45222 -0.00000 -0.00000
							CHANNELS 3 Zrotation Yrotation Xrotation
							JOINT RightHand
							{
								OFFSET -3.01284 -0.00000 -0.00000
								CHANNELS 3 Zrotation Yrotation Xrotation
								JOINT RightFingerBase
								{
									OFFSET 0 0 0
									CHANNELS 3 Zrotation Yrotation Xrotation
									JOINT RightHandIndex1
									{
										OFFSET -0.62230 -0.00000 -0.00000
										CHANNELS 3 Zrotation Yrotation Xrotation
										End Site
										{
											OFFSET -0.50171 -0.00000 -0.00000
										}
									}
								}
								JOINT RThumb
								{
									OFFSET 0 0 0
									CHANNELS 3 Zrotation Yrotation Xrotation
									End Site
									{
										OFFSET -0.50937 -0.00000 0.50937
									}
								}
							}
						}
					}
				}
			}
		}
	}
}
MOTION
Frames: 9
Frame Time: 0.021978
0.00 0.00 0.00 -174.6570 14.2511 -170.6890 0.0000 0.0000 0.0000 -8.3574 -10.1633 -45.5508 4.4885 12.7836 38.5636 -0.2685 -9.6783 0.1544 0.9062 -6.0664 -16.9771 0.0000 0.0000 0.0000 25.6805 6.7043 14.4784 -1.2549 -7.1018 20.0174 1.7943 24.3501 0.3070 -1.3380 7.3240 -20.6789 8.0187 5.5196 -2.9179 -1.0902 8.1220 -8.0433 -5.6940 3.8451 -5.6159 -28.8072 -8.6258 15.3116 40.1952 -20.6963 -5.9061 18.9678 -13.3094 3.7672 -0.0000 -0.0000 0.0000 -92.8681 43.5232 6.3052 16.8391 -26.6452 -4.0149 -0.0000 0.0000 -40.4604 15.8749 -4.6269 -1.3142 -7.1250 0.0000 -0.0000 -8.0860 25.1656 3.9171 -0.0000 -0.0000 0.0000 93.5360 13.5741 48.1653 -67.3417 57.9684 -40.5112 0.0000 -0.0000 -7.7486 -14.8939 -7.1504 1.8961 7.1250 -0.0000 -0.0000 10.0900 -37.2053 1.9595
0.00 0.00 0.00 -180.7450 10.2177 -171.9290 0.0000 0.0000 0.0000 -16.5891 -13.1837 -41.9650 4.9995 13.3832 40.8206 -0.3988 -13.2447 -2.8457 0.7944 -5.6893 -15.8855 0.0000 0.0000 0.0000 19.2339 4.2420 5.4934 -4.3325 -12.5901 37.8529 0.9159 18.5246 15.6708 -0.9779 6.2950 -17.6429 1.6463 3.3236 -4.1049 -2.8125 5.1604 -8.4251 -3.9406 2.7227 -6.0867 -28.4893 -8.4189 15.1137 40.1420 -21.2140 -4.1866 18.7769 -13.6511 4.4017 0.0000 0.0000 0.0000 -90.0198 39.7630 8.2268 14.3918 -23.2921 -2.9813 -0.0000 0.0000 -34.9361 13.9463 -4.7376 -1.1750 -7.1250 0.0000 -0.0000 -9.5188 25.0926 4.6448 0.0000 0.0000 0.0000 93.7266 9.0597 49.8552 -83.0200 59.8151 -53.9589 0.0000 -0.0000 -4.8972 -12.1521 0.7190 -0.1548 7.1250 -0.0000 -0.0000 11.2257 -29.1586 4.4107
0.00 0.00 0.00 -188.4540 -1.6155 -177.5750 0.0000 0.0000 0.0000 -33.0298 -1.0937 -3.9046 1.2088 6.9748 19.6407 -1.0076 -24.0948 -9.0026 0.0002 -0.0935 -0.2568 0.0000 0.0000 0.0000 4.9786 14.2965 -56.7277 -14.4619 -19.2482 73.6104 -0.2764 2.0884 10.9223 -1.3746 7.4196 -20.9646 -7.7094 -0.6916 6.9725 -3.8008 -2.6786 -5.8114 0.6865 -1.1211 -10.0543 -30.4392 -12.0833 11.3138 37.2432 -19.9013 1.9688 17.6335 -10.3004 6.4168 -0.0000 -0.0000 0.0000 -84.5081 0.6156 23.6095 52.0214 -53.7789 -27.7968 -0.0000 0.0000 -49.1826 22.1086 -9.3038 -3.7575 -7.1250 0.0000 -0.0000 -3.4585 19.9613 2.0738 -0.0000 -0.0000 0.0000 92.7558 -10.8476 15.8726 -12.0880 19.9364 -2.1322 0.0000 0.0000 4.9995 -18.5295 -11.3920 3.7876 7.1250 -0.0000 -0.0000 7.7095 -41.8513 0.6028
0.00 0.00 0.00 -188.1410 -3.9970 -176.0460 0.0000 0.0000 0.0000 -32.2757 -0.7072 -0.6135 1.0039 6.3757 17.8785 -1.2323 -25.5053 -8.6560 0.0042 -0.4171 -1.1461 0.0000 0.0000 0.0000 4.4799 15.1828 -56.1994 -9.1893 -16.9280 56.7426 -0.1352 5.0016 10.5413 -1.5165 7.7765 -22.0373 -7.9251 -1.0093 6.0190 -3.5121 -3.0286 -6.1094 1.1391 -1.2727 -9.7690 -30.3767 -12.4638 11.5662 37.7058 -20.3773 1.4217 17.7359 -10.5517 6.4822 0.0000 -0.0000 0.0000 -85.8636 -2.0945 25.4792 71.3435 -58.6431 -43.9166 -0.0000 0.0000 -47.9912 23.4499 -11.6992 -5.0267 -7.1250 0.0000 -0.0000 -2.5956 17.2684 1.7099 0.0000 -0.0000 0.0000 91.4896 -16.4787 2.7714 -8.1425 13.7836 -0.9858 0.0000 0.0000 14.9126 -17.4050 -18.1118 5.5660 7.1250 -0.0000 -0.0000 10.3844 -48.6206 -0.9367
0.00 0.00 0.00 -187.7410 -7.0231 -175.0710 0.0000 0.0000 0.0000 -31.3273 -1.9914 3.8385 1.0376 6.4787 18.1800 -1.2900 -25.9979 -8.7628 0.0310 -1.1360 -3.1232 0.0000 0.0000 0.0000 5.9983 13.6001 -51.0547 -4.9561 -13.3342 40.6327 -0.3691 5.5229 14.8357 -2.6349 10.0791 -29.2332 -7.8553 -1.3863 4.6959 -3.0179 -3.3399 -6.3439 1.6203 -1.4214 -9.1842 -29.8032 -9.0211 12.3755 39.0422 -21.1265 -2.4717 18.1500 -13.0403 5.3548 0.0000 0.0000 0.0000 -86.9819 -2.0992 29.0654 98.9491 -59.6952 -67.7422 -0.0000 0.0000 -46.7692 22.8357 -14.0877 -5.8522 -7.1250 0.0000 -0.0000 -3.1434 14.7637 2.2420 0.0000 0.0000 0.0000 89.5974 -27.3305 10.4473 -9.8833 16.5569 -1.4415 0.0000 0.0000 12.2145 -11.7638 -15.8860 3.2625 7.1250 -0.0000 -0.0000 14.8955 -45.6441 -0.2422
0.00 0.00 0.00 -186.8730 -9.4232 -174.6820 0.0000 0.0000 0.0000 -29.7731 -3.4552 6.1695 1.5340 7.8192 22.1664 -1.5596 -26.9625 -7.5924 0.1637 -2.6065 -7.1851 0.0000 0.0000 0.0000 9.9882 10.0669 -45.8543 -4.0361 -12.2083 36.4728 -0.0526 9.6207 14.5634 -1.6499 8.0953 -23.0039 -6.8748 -1.7272 2.4984 -2.6262 -3.5395 -6.8493 1.4319 -1.6094 -8.4360 -30.2536 -9.1116 13.1351 38.3288 -21.6536 -1.5696 17.8441 -13.2751 5.5989 0.0000 -0.0000 0.0000 -86.4426 0.8172 32.0179 117.3361 -56.9790 -83.4337 -0.0000 0.0000 -45.7793 18.7486 -14.5276 -4.8666 -7.1250 0.0000 -0.0000 -5.9472 14.7329 4.2626 0.0000 -0.0000 0.0000 88.9709 -35.1619 16.2038 -11.5891 19.1856 -1.9652 0.0000 0.0000 2.9031 -8.2098 -13.5503 1.9361 7.1250 -0.0000 -0.0000 17.3085 -42.9784 0.8922
0.00 0.00 0.00 -182.2360 -9.2517 -175.7410 0.0000 0.0000 0.0000 -23.4600 -2.2647 2.8573 4.0672 12.2493 36.6196 -2.2275 -25.5159 6.2808 0.0422 -1.3256 -3.6452 0.0000 0.0000 0.0000 18.1951 9.0451 -41.2272 -4.9312 -13.3059 40.5247 0.4871 12.8173 0.7127 -0.8690 5.9437 -16.6213 -1.7180 -0.6895 0.6408 -1.4439 -1.6654 -7.5883 -0.3947 -0.9898 -8.3130 -30.8712 -9.4063 14.1034 36.9087 -22.5998 0.0218 17.1464 -13.6674 6.0635 0.0000 0.0000 0.0000 -85.2877 6.1270 35.5610 128.1091 -53.7303 -92.3084 -0.0000 0.0000 -42.7500 11.8707 -14.3348 -2.9791 -7.1250 0.0000 -0.0000 -10.6184 15.5113 7.5241 0.0000 0.0000 0.0000 90.3641 -38.4584 14.1612 -10.1431 16.9631 -1.5164 0.0000 0.0000 3.2618 -5.6603 -13.4352 1.3192 7.1250 -0.0000 -0.0000 19.4782 -42.6084 1.1990
0.00 0.00 0.00 -178.0740 -7.2425 -176.4680 0.0000 0.0000 0.0000 -17.1937 -0.9866 -7.1487 8.5595 16.5157 54.5539 -1.1202 -20.2661 16.9473 0.1168 -2.2031 -6.0673 0.0000 0.0000 0.0000 24.2854 8.2284 -37.9384 -4.8261 -13.1853 40.0660 0.6148 15.5565 -2.0897 -0.6600 5.1960 -14.4683 2.8632 0.4829 1.5690 -0.3970 0.3193 -7.5296 -2.0195 -0.2655 -8.7736 -30.7515 -9.6921 14.2819 37.5312 -22.8026 -1.1683 17.3455 -13.8041 5.8764 -0.0000 -0.0000 0.0000 -85.0657 9.8523 36.7551 125.8923 -54.5236 -90.5120 -0.0000 0.0000 -40.4891 12.6851 -13.9481 -3.1055 -7.1250 0.0000 -0.0000 -10.0709 15.8412 7.0505 -0.0000 -0.0000 0.0000 90.3791 -34.0419 16.8630 -8.8908 14.9863 -1.1717 0.0000 0.0000 11.5477 -13.1346 -14.6787 3.3839 7.1250 -0.0000 -0.0000 13.2934 -44.6160 0.1283
0.00 0.00 0.00 -175.6340 -2.1755 -177.5120 0.0000 0.0000 0.0000 -5.0155 -13.6279 -43.6254 15.5718 19.5232 76.9533 -0.2877 -19.0138 -10.7021 2.7432 -10.2673 -29.8466 0.0000 0.0000 0.0000 29.7524 4.5587 -20.0922 -2.6836 -10.1643 29.5105 0.6022 19.2802 -7.5764 -0.3000 3.5220 -9.7357 8.6241 3.4604 5.4564 -0.4845 5.1862 -7.2171 -6.0054 1.6840 -10.0156 -31.3294 -9.9589 17.1237 37.7751 -23.9248 -1.9716 17.5804 -14.5659 5.7146 -0.0000 -0.0000 0.0000 -87.1888 15.5197 29.2331 19.6556 -30.2252 -5.3569 -0.0000 0.0000 -43.0343 21.3028 -20.5785 -7.8043 -7.1250 0.0000 -0.0000 -4.6032 8.0894 3.9227 -0.0000 -0.0000 0.0000 87.4639 7.6261 43.0492 -33.6375 43.8143 -13.8615 0.0000 -0.0000 -8.1868 -23.8071 -7.0915 3.1177 7.1250 -0.0000 -0.0000 2.5474 -37.7121 0.4574
